<svg xmlns='http://www.w3.org/2000/svg' width='256' height='256' viewBox='0 0 256 256' role='img'><title>DaVinci Resolve compatibility symbol</title><title id="host-resolve-title" xmlns="http://www.w3.org/2000/svg">DaVinci Resolve application symbol — vector reproduction</title><desc xmlns="http://www.w3.org/2000/svg">Vector reconstruction of the square application icon, referenced against the existing Blackmagic press-image-derived installer asset. Not an official vector master.</desc><defs xmlns="http://www.w3.org/2000/svg"><linearGradient id="host-rim-top" x1="0" y1="0" x2="256" y2="105" gradientUnits="userSpaceOnUse"><stop stop-color="#59cf9d" /><stop offset=".34" stop-color="#02bfe6" /><stop offset=".66" stop-color="#219fda" /><stop offset="1" stop-color="#978eaf" /></linearGradient><linearGradient id="host-rim-bottom" x1="0" y1="128" x2="256" y2="245" gradientUnits="userSpaceOnUse"><stop stop-color="#60c990" /><stop offset=".36" stop-color="#ece62c" /><stop offset=".73" stop-color="#f5b343" /><stop offset="1" stop-color="#ef3949" /></linearGradient><radialGradient id="host-ground" cx=".5" cy=".25" r=".86"><stop stop-color="#263f57" /><stop offset="1" stop-color="#1b2b3e" /></radialGradient><linearGradient id="host-blue" x1="108" y1="53" x2="142" y2="126" gradientUnits="userSpaceOnUse"><stop stop-color="#00e6ed" /><stop offset=".36" stop-color="#0fbfd9" /><stop offset=".68" stop-color="#a0d5db" /><stop offset=".9" stop-color="#e9e2dd" /><stop offset="1" stop-color="#ceaeaf" /></linearGradient><radialGradient id="host-blue-light" cx=".30" cy=".08" r=".80"><stop stop-color="#9affff" stop-opacity=".75" /><stop offset=".5" stop-color="#37dce5" stop-opacity=".12" /><stop offset="1" stop-color="#00afcf" stop-opacity="0" /></radialGradient><linearGradient id="host-yellow" x1="89" y1="135" x2="71" y2="196" gradientUnits="userSpaceOnUse"><stop stop-color="#f5f4d5" /><stop offset=".25" stop-color="#e5ed79" /><stop offset=".55" stop-color="#c8e747" /><stop offset=".88" stop-color="#d7df14" /><stop offset="1" stop-color="#b2b524" /></linearGradient><radialGradient id="host-yellow-light" cx=".80" cy=".03" r=".90"><stop stop-color="#fffff3" stop-opacity=".75" /><stop offset=".57" stop-color="#e4f1aa" stop-opacity=".12" /><stop offset="1" stop-color="#c3d54b" stop-opacity="0" /></radialGradient><linearGradient id="host-red" x1="140" y1="135" x2="197" y2="187" gradientUnits="userSpaceOnUse"><stop stop-color="#f8e0d3" /><stop offset=".32" stop-color="#e99b91" /><stop offset=".66" stop-color="#fa5365" /><stop offset="1" stop-color="#f7413e" /></linearGradient><radialGradient id="host-red-light" cx=".13" cy=".09" r=".84"><stop stop-color="#fff1d9" stop-opacity=".65" /><stop offset=".65" stop-color="#ffd1a3" stop-opacity=".12" /><stop offset="1" stop-color="#ff7967" stop-opacity="0" /></radialGradient></defs><rect x="5" y="5" width="246" height="246" rx="62" fill="#0f1d2a" xmlns="http://www.w3.org/2000/svg" /><path d="M9 128V68C9 34 34 9 68 9H188C222 9 247 34 247 68V128" fill="none" stroke="url(#host-rim-top)" stroke-width="9" xmlns="http://www.w3.org/2000/svg" /><path d="M9 127V188C9 222 34 247 68 247H188C222 247 247 222 247 188V127" fill="none" stroke="url(#host-rim-bottom)" stroke-width="9" xmlns="http://www.w3.org/2000/svg" /><rect x="5" y="5" width="246" height="246" rx="62" fill="none" stroke="#d3e1e7" stroke-opacity=".65" stroke-width="1.3" xmlns="http://www.w3.org/2000/svg" /><rect x="16" y="16" width="224" height="224" rx="52" fill="#121e2c" xmlns="http://www.w3.org/2000/svg" /><rect x="20" y="20" width="216" height="216" rx="48" fill="url(#host-ground)" xmlns="http://www.w3.org/2000/svg" /><path d="M128 132C122 132 96 103 94 85C91 64 106 49 128 49C150 49 164 65 162 85C160 103 134 132 128 132Z" fill="#081f2e" transform="translate(0 1.4)" xmlns="http://www.w3.org/2000/svg" /><path d="M128 130C122 130 96 101 94 83C92 63 106 49 128 49C150 49 164 64 162 83C160 102 134 130 128 130Z" fill="url(#host-blue)" stroke="#6d9dad" stroke-width="1.3" xmlns="http://www.w3.org/2000/svg" /><path d="M128 130C122 130 96 101 94 83C92 63 106 49 128 49C150 49 164 64 162 83C160 102 134 130 128 130Z" fill="url(#host-blue-light)" xmlns="http://www.w3.org/2000/svg" /><path d="M97 78C99 62 111 52 128 52C144 52 156 62 159 75" fill="none" stroke="#b1f4f2" stroke-width="1.2" stroke-opacity=".7" xmlns="http://www.w3.org/2000/svg" /><path d="M119 138C125 141 119 157 113 172C106 190 96 199 82 199C61 199 46 185 47 163C48 142 61 131 80 131C95 131 111 134 119 138Z" fill="#142627" transform="translate(0 1.4)" xmlns="http://www.w3.org/2000/svg" /><path d="M119 138C125 141 119 157 113 172C106 189 96 197 82 197C61 197 46 183 48 162C50 141 62 131 80 131C95 131 111 134 119 138Z" fill="url(#host-yellow)" stroke="#a1ba60" stroke-width="1.3" xmlns="http://www.w3.org/2000/svg" /><path d="M119 138C125 141 119 157 113 172C106 189 96 197 82 197C61 197 46 183 48 162C50 141 62 131 80 131C95 131 111 134 119 138Z" fill="url(#host-yellow-light)" xmlns="http://www.w3.org/2000/svg" /><path d="M53 151C60 135 76 128 111 138" fill="none" stroke="#f0f6ca" stroke-width="1.1" stroke-opacity=".65" xmlns="http://www.w3.org/2000/svg" /><path d="M138 138C132 141 138 157 144 172C151 190 161 199 175 199C196 199 211 185 209 163C207 142 195 131 177 131C162 131 146 134 138 138Z" fill="#2c202b" transform="translate(0 1.4)" xmlns="http://www.w3.org/2000/svg" /><path d="M138 138C132 141 138 157 144 172C151 189 161 197 175 197C196 197 211 183 208 162C206 141 194 131 177 131C162 131 146 134 138 138Z" fill="url(#host-red)" stroke="#b68288" stroke-width="1.3" xmlns="http://www.w3.org/2000/svg" /><path d="M138 138C132 141 138 157 144 172C151 189 161 197 175 197C196 197 211 183 208 162C206 141 194 131 177 131C162 131 146 134 138 138Z" fill="url(#host-red-light)" xmlns="http://www.w3.org/2000/svg" /><path d="M143 139C174 129 195 136 203 152" fill="none" stroke="#f6ddd8" stroke-width="1.1" stroke-opacity=".65" xmlns="http://www.w3.org/2000/svg" /></svg>
